<svg xmlns="http://www.w3.org/2000/svg" xmlns:xlink="http://www.w3.org/1999/xlink" viewBox="0 0 66 46" fill="#fff" fill-rule="evenodd" stroke="#000" stroke-linecap="round" stroke-linejoin="round"><use xlink:href="#A" x=".5" y=".5"/><symbol id="A" overflow="visible"><path d="M26.62 4.892c2.068-2.142 4.95-3.497 8.126-3.497 4.235 0 7.905 2.364 9.875 5.86 1.7-.763 3.595-1.182 5.6-1.182 7.634 0 13.8 6.23 13.8 13.913S57.82 33.9 50.2 33.9c-.91-.001-1.817-.092-2.709-.271-1.724 3.078-5.023 5.17-8.816 5.17-1.576 0-3.078-.37-4.408-1-1.748 4.112-5.836 7.018-10.6 7.018a11.5 11.5 0 0 1-10.8-7.535c-.721.148-1.456.223-2.192.222C4.777 37.495 0 32.67 0 26.685a10.82 10.82 0 0 1 5.344-9.357C4.68 15.826 4.3 14.15 4.3 12.378 4.285 5.557 9.875 0 16.72 0a12.41 12.41 0 0 1 9.899 4.9" stroke="none" fill="#00a1e0" fill-rule="nonzero"/></symbol></svg>